<svg width="24" height="24" viewBox="0 0 24 24" fill="none" xmlns="http://www.w3.org/2000/svg">
<g clip-path="url(#clip0_65_2765)">
<path d="M17.0248 3.3816C16.7979 3.38163 16.5803 3.47178 16.4198 3.63223C16.2594 3.79267 16.1692 4.01027 16.1692 4.23718L16.1976 17.4466C16.1977 18.0085 16.0871 18.565 15.8721 19.0841C15.6571 19.6032 15.3419 20.075 14.9446 20.4723C14.1423 21.2748 13.054 21.7257 11.9191 21.7258C10.7843 21.7258 9.69596 21.2751 8.89347 20.4727C8.09099 19.6704 7.64011 18.5821 7.64003 17.4472L7.61401 4.65529C7.61944 3.97808 7.89225 3.33046 8.37301 2.85349C8.85377 2.37652 9.50353 2.10884 10.1808 2.10876C10.858 2.10868 11.5078 2.3762 11.9887 2.85306C12.4695 3.32992 12.7425 3.97748 12.7481 4.65468L12.7741 17.4466C12.7693 17.672 12.6776 17.8869 12.5182 18.0463C12.3588 18.2057 12.1439 18.2974 11.9185 18.3022C11.6916 18.3022 11.474 18.212 11.3136 18.0516C11.1531 17.8911 11.063 17.6735 11.063 17.4466L11.0369 6.05483C11.033 5.83049 10.9412 5.61666 10.7812 5.45939C10.6211 5.30212 10.4057 5.21399 10.1814 5.21399C9.95698 5.21399 9.74159 5.30212 9.58156 5.45939C9.42153 5.61666 9.32967 5.83049 9.32577 6.05483L9.35179 17.4466C9.35176 17.7838 9.41815 18.1177 9.54716 18.4292C9.67617 18.7407 9.86528 19.0237 10.1037 19.2621C10.3421 19.5005 10.6251 19.6896 10.9366 19.8186C11.2481 19.9476 11.582 20.014 11.9191 20.014C12.5951 19.9982 13.2389 19.7226 13.717 19.2445C14.1951 18.7664 14.4707 18.1226 14.4865 17.4466L14.4593 4.65468C14.4449 3.52942 13.9878 2.45512 13.187 1.66449C12.3862 0.873862 11.3061 0.430574 10.1808 0.430654C9.0554 0.430734 7.97539 0.874175 7.17468 1.66492C6.37397 2.45566 5.91703 3.53003 5.90285 4.65529L5.92887 17.4472C5.92887 19.036 6.55998 20.5596 7.68338 21.683C8.80677 22.8064 10.3304 23.4375 11.9191 23.4375C13.5079 23.4375 15.0315 22.8064 16.1549 21.683C17.2783 20.5596 17.9094 19.036 17.9094 17.4472L17.8828 4.2396C17.8831 4.12684 17.8611 4.01513 17.8181 3.9109C17.7751 3.80666 17.7119 3.71196 17.6322 3.63223C17.5524 3.55249 17.4577 3.4893 17.3535 3.44629C17.2493 3.40328 17.1376 3.38129 17.0248 3.3816Z" fill="#EA8D00"/>
</g>
<defs>
<clipPath id="clip0_65_2765">
<rect width="24" height="24" fill="white"/>
</clipPath>
</defs>
</svg>
