<svg width="16" height="19" viewBox="0 0 16 19" fill="none" xmlns="http://www.w3.org/2000/svg">
<path fill-rule="evenodd" clip-rule="evenodd" d="M8.89071 17.708C11.0064 16.2644 15.8333 12.4716 15.8333 7.91667C15.8333 3.54441 12.2889 0 7.91667 0C3.54441 0 0 3.54441 0 7.91667C0 12.4716 4.82692 16.2644 6.94262 17.708C7.53425 18.1117 8.29908 18.1117 8.89071 17.708ZM7.91699 10.4166C9.2977 10.4166 10.417 9.29734 10.417 7.91663C10.417 6.53591 9.2977 5.41663 7.91699 5.41663C6.53628 5.41663 5.41699 6.53591 5.41699 7.91663C5.41699 9.29734 6.53628 10.4166 7.91699 10.4166Z" fill="#EA8D00"/>
</svg>
