<svg width="16" height="16" viewBox="0 0 16 16" fill="none" xmlns="http://www.w3.org/2000/svg">
<path d="M11.3474 10.9836L10.8319 11.7568C10.729 11.9112 10.5929 12.0429 10.4136 12.0903C9.82613 12.2455 8.26656 12.3156 5.89217 9.94119C3.51777 7.56679 3.58785 6.00721 3.74307 5.41977C3.79046 5.24043 3.92216 5.10434 4.0765 5.00145L4.84975 4.48595C5.42545 4.10215 5.58102 3.32432 5.19721 2.74862L3.73681 0.558008C3.40181 0.0555105 2.756 -0.136471 2.2009 0.101428L1.54211 0.383769C1.04165 0.598251 0.633408 0.983181 0.389907 1.47018C0.18647 1.87706 0.0287919 2.30552 0.00742809 2.75991C-0.0598977 4.1919 0.254099 7.71987 4.18379 11.6496C8.11349 15.5793 11.6414 15.8932 13.0734 15.8259C13.5278 15.8045 13.9563 15.6469 14.3632 15.4434C14.8502 15.1999 15.2351 14.7917 15.4496 14.2912L15.7319 13.6324C15.9698 13.0773 15.7778 12.4315 15.2753 12.0965L13.0847 10.6361C12.509 10.2523 11.7312 10.4079 11.3474 10.9836Z" fill="#EA8D00"/>
</svg>
